<svg xmlns="http://www.w3.org/2000/svg" viewBox="0 0 400 200" width="400" height="200">
  <!-- Hull -->
  <path d="M30 120 Q50 105 80 105 L350 105 L370 120 L360 145 L50 145 Z" fill="#2a3a2a"/>
  <!-- Main deck -->
  <rect x="60" y="95" width="295" height="12" fill="#1a2a1a"/>
  <!-- Bow turret -->
  <rect x="65" y="85" width="40" height="12" rx="3" fill="#0a1a0a"/>
  <rect x="55" y="88" width="15" height="6" rx="1" fill="#0a1a0a"/>
  <rect x="95" y="88" width="15" height="6" rx="1" fill="#0a1a0a"/>
  <!-- Second turret -->
  <rect x="140" y="82" width="40" height="14" rx="3" fill="#0a1a0a"/>
  <rect x="130" y="85" width="15" height="6" rx="1" fill="#0a1a0a"/>
  <rect x="175" y="85" width="15" height="6" rx="1" fill="#0a1a0a"/>
  <!-- Superstructure -->
  <rect x="190" y="65" width="70" height="32" fill="#1a2a1a"/>
  <rect x="200" y="55" width="20" height="12" fill="#0a1a0a"/>
  <rect x="225" y="58" width="15" height="10" fill="#0a1a0a"/>
  <!-- Mast -->
  <line x1="210" y1="55" x2="210" y2="25" stroke="#0a1a0a" stroke-width="2"/>
  <line x1="195" y1="38" x2="230" y2="38" stroke="#0a1a0a" stroke-width="1.5"/>
  <line x1="195" y1="32" x2="220" y2="32" stroke="#0a1a0a" stroke-width="1"/>
  <!-- Funnel -->
  <rect x="245" y="68" width="18" height="28" rx="2" fill="#0a1a0a"/>
  <!-- Rear turrets -->
  <rect x="275" y="85" width="40" height="12" rx="3" fill="#0a1a0a"/>
  <rect x="270" y="88" width="12" height="5" rx="1" fill="#0a1a0a"/>
  <rect x="310" y="88" width="12" height="5" rx="1" fill="#0a1a0a"/>
  <rect x="310" y="88" width="30" height="10" rx="3" fill="#0a1a0a"/>
  <rect x="340" y="90" width="12" height="4" rx="1" fill="#0a1a0a"/>
  <!-- Deck railing -->
  <line x1="60" y1="105" x2="355" y2="105" stroke="#3a4a3a" stroke-width="1" opacity="0.7"/>
  <!-- Label -->
  <text x="200" y="178" text-anchor="middle" font-family="Arial, sans-serif" font-size="16" font-weight="bold" fill="#1a2a1a" letter-spacing="3">BATTLESHIP</text>
</svg>
